<mxfile host="app.diagrams.net" agent="Mozilla/5.0 (Macintosh; Intel Mac OS X 10_15_7) AppleWebKit/605.1.15 (KHTML, like Gecko) Version/16.3 Safari/605.1.15" version="26.2.9">
  <diagram name="Page-1" id="2l1_2B0iwLR3p8ndjshJ">
    <mxGraphModel dx="948" dy="652" grid="1" gridSize="10" guides="1" tooltips="1" connect="1" arrows="1" fold="1" page="1" pageScale="1" pageWidth="850" pageHeight="1100" background="none" math="0" shadow="0">
      <root>
        <mxCell id="0" />
        <mxCell id="1" parent="0" />
        <mxCell id="mJuBikWvwrhdQ-Whxb6D-2" value="" style="rounded=0;whiteSpace=wrap;html=1;fillColor=none;dashed=1;" parent="1" vertex="1">
          <mxGeometry x="20" y="45" width="120" height="360" as="geometry" />
        </mxCell>
        <mxCell id="mJuBikWvwrhdQ-Whxb6D-3" value="Sources" style="rounded=0;fontColor=default;whiteSpace=wrap;html=1;strokeColor=none;" parent="1" vertex="1">
          <mxGeometry x="45" y="20" width="70" height="30" as="geometry" />
        </mxCell>
        <mxCell id="mJuBikWvwrhdQ-Whxb6D-4" value="" style="image;aspect=fixed;html=1;points=[];align=center;fontSize=12;image=img/lib/azure2/general/Folder_Blank.svg;" parent="1" vertex="1">
          <mxGeometry x="55.35" y="130" width="49.29" height="40" as="geometry" />
        </mxCell>
        <mxCell id="mJuBikWvwrhdQ-Whxb6D-5" value="" style="image;aspect=fixed;html=1;points=[];align=center;fontSize=12;image=img/lib/azure2/general/Folder_Blank.svg;" parent="1" vertex="1">
          <mxGeometry x="55.35" y="260" width="49.29" height="40" as="geometry" />
        </mxCell>
        <mxCell id="mJuBikWvwrhdQ-Whxb6D-6" value="CRM" style="rounded=0;fontColor=default;whiteSpace=wrap;html=1;strokeColor=none;" parent="1" vertex="1">
          <mxGeometry x="45" y="170" width="70" height="30" as="geometry" />
        </mxCell>
        <mxCell id="mJuBikWvwrhdQ-Whxb6D-7" value="ERP" style="rounded=0;fontColor=default;whiteSpace=wrap;html=1;strokeColor=none;" parent="1" vertex="1">
          <mxGeometry x="45" y="300" width="70" height="30" as="geometry" />
        </mxCell>
        <mxCell id="mJuBikWvwrhdQ-Whxb6D-8" value="" style="rounded=1;whiteSpace=wrap;html=1;fillColor=none;strokeColor=#d6b656;" parent="1" vertex="1">
          <mxGeometry x="190" y="70" width="140" height="310" as="geometry" />
        </mxCell>
        <mxCell id="mJuBikWvwrhdQ-Whxb6D-9" value="Bronze Layer" style="rounded=0;whiteSpace=wrap;html=1;strokeColor=#d79b00;fillColor=#ffe6cc;" parent="1" vertex="1">
          <mxGeometry x="222.5" y="40" width="75" height="30" as="geometry" />
        </mxCell>
        <mxCell id="mJuBikWvwrhdQ-Whxb6D-10" value="crm_sales_details" style="rounded=1;whiteSpace=wrap;html=1;fillColor=#ffe6cc;strokeColor=#d79b00;fontSize=10;" parent="1" vertex="1">
          <mxGeometry x="210" y="100" width="100" height="30" as="geometry" />
        </mxCell>
        <mxCell id="mJuBikWvwrhdQ-Whxb6D-11" value="crm_cust_info" style="rounded=1;whiteSpace=wrap;html=1;fillColor=#ffe6cc;strokeColor=#d79b00;fontSize=10;" parent="1" vertex="1">
          <mxGeometry x="210" y="140" width="100" height="30" as="geometry" />
        </mxCell>
        <mxCell id="mJuBikWvwrhdQ-Whxb6D-12" value="crm_prd_info" style="rounded=1;whiteSpace=wrap;html=1;fillColor=#ffe6cc;strokeColor=#d79b00;fontSize=10;" parent="1" vertex="1">
          <mxGeometry x="210" y="180" width="100" height="30" as="geometry" />
        </mxCell>
        <mxCell id="mJuBikWvwrhdQ-Whxb6D-13" value="erp_cust_az12" style="rounded=1;whiteSpace=wrap;html=1;fillColor=#ffe6cc;strokeColor=#d79b00;fontSize=10;" parent="1" vertex="1">
          <mxGeometry x="210" y="240" width="100" height="30" as="geometry" />
        </mxCell>
        <mxCell id="mJuBikWvwrhdQ-Whxb6D-14" value="erp_loc_a101" style="rounded=1;whiteSpace=wrap;html=1;fillColor=#ffe6cc;strokeColor=#d79b00;fontSize=10;" parent="1" vertex="1">
          <mxGeometry x="210" y="280" width="100" height="30" as="geometry" />
        </mxCell>
        <mxCell id="mJuBikWvwrhdQ-Whxb6D-15" value="erp_px_cat_g1v2" style="rounded=1;whiteSpace=wrap;html=1;fillColor=#ffe6cc;strokeColor=#d79b00;fontSize=10;" parent="1" vertex="1">
          <mxGeometry x="210" y="320" width="100" height="30" as="geometry" />
        </mxCell>
        <mxCell id="mJuBikWvwrhdQ-Whxb6D-16" value="" style="edgeStyle=elbowEdgeStyle;elbow=horizontal;endArrow=classic;html=1;curved=0;rounded=0;endSize=8;startSize=8;" parent="1" edge="1">
          <mxGeometry width="50" height="50" relative="1" as="geometry">
            <mxPoint x="150" y="160" as="sourcePoint" />
            <mxPoint x="180" y="194.66" as="targetPoint" />
            <Array as="points">
              <mxPoint x="150" y="180" />
            </Array>
          </mxGeometry>
        </mxCell>
        <mxCell id="mJuBikWvwrhdQ-Whxb6D-17" value="" style="edgeStyle=elbowEdgeStyle;elbow=horizontal;endArrow=classic;html=1;curved=0;rounded=0;endSize=8;startSize=8;" parent="1" edge="1">
          <mxGeometry width="50" height="50" relative="1" as="geometry">
            <mxPoint x="110" y="160" as="sourcePoint" />
            <mxPoint x="180" y="110" as="targetPoint" />
            <Array as="points">
              <mxPoint x="150" y="140" />
            </Array>
          </mxGeometry>
        </mxCell>
        <mxCell id="mJuBikWvwrhdQ-Whxb6D-18" value="" style="edgeStyle=elbowEdgeStyle;elbow=horizontal;endArrow=classic;html=1;curved=0;rounded=0;endSize=8;startSize=8;" parent="1" source="mJuBikWvwrhdQ-Whxb6D-2" edge="1">
          <mxGeometry width="50" height="50" relative="1" as="geometry">
            <mxPoint x="100" y="180" as="sourcePoint" />
            <mxPoint x="180" y="160" as="targetPoint" />
            <Array as="points">
              <mxPoint x="160" y="160" />
            </Array>
          </mxGeometry>
        </mxCell>
        <mxCell id="mJuBikWvwrhdQ-Whxb6D-19" value="" style="edgeStyle=elbowEdgeStyle;elbow=horizontal;endArrow=classic;html=1;curved=0;rounded=0;endSize=8;startSize=8;entryX=0;entryY=0.581;entryDx=0;entryDy=0;entryPerimeter=0;" parent="1" target="mJuBikWvwrhdQ-Whxb6D-8" edge="1">
          <mxGeometry width="50" height="50" relative="1" as="geometry">
            <mxPoint x="110" y="290" as="sourcePoint" />
            <mxPoint x="160" y="240" as="targetPoint" />
          </mxGeometry>
        </mxCell>
        <mxCell id="mJuBikWvwrhdQ-Whxb6D-20" value="" style="edgeStyle=segmentEdgeStyle;endArrow=classic;html=1;curved=0;rounded=0;endSize=8;startSize=8;" parent="1" target="mJuBikWvwrhdQ-Whxb6D-8" edge="1">
          <mxGeometry width="50" height="50" relative="1" as="geometry">
            <mxPoint x="110" y="290" as="sourcePoint" />
            <mxPoint x="150" y="350" as="targetPoint" />
          </mxGeometry>
        </mxCell>
        <mxCell id="mJuBikWvwrhdQ-Whxb6D-21" value="" style="edgeStyle=elbowEdgeStyle;elbow=horizontal;endArrow=classic;html=1;curved=0;rounded=0;endSize=8;startSize=8;" parent="1" edge="1">
          <mxGeometry width="50" height="50" relative="1" as="geometry">
            <mxPoint x="150" y="290" as="sourcePoint" />
            <mxPoint x="190" y="330" as="targetPoint" />
            <Array as="points">
              <mxPoint x="150" y="310" />
            </Array>
          </mxGeometry>
        </mxCell>
        <mxCell id="CkMgCC47kW4L7O7TYzsK-2" value="" style="rounded=1;whiteSpace=wrap;html=1;fillColor=none;strokeColor=#d6b656;" vertex="1" parent="1">
          <mxGeometry x="355" y="70" width="140" height="310" as="geometry" />
        </mxCell>
        <mxCell id="CkMgCC47kW4L7O7TYzsK-3" value="Silver Layer" style="rounded=0;whiteSpace=wrap;html=1;strokeColor=#666666;fillColor=#f5f5f5;fontColor=#333333;" vertex="1" parent="1">
          <mxGeometry x="387.5" y="40" width="75" height="30" as="geometry" />
        </mxCell>
        <mxCell id="CkMgCC47kW4L7O7TYzsK-4" value="crm_sales_details" style="rounded=1;whiteSpace=wrap;html=1;fillColor=#f5f5f5;strokeColor=#666666;fontSize=10;fontColor=#333333;" vertex="1" parent="1">
          <mxGeometry x="375" y="100" width="100" height="30" as="geometry" />
        </mxCell>
        <mxCell id="CkMgCC47kW4L7O7TYzsK-5" value="crm_cust_info" style="rounded=1;whiteSpace=wrap;html=1;fillColor=#f5f5f5;strokeColor=#666666;fontSize=10;fontColor=#333333;" vertex="1" parent="1">
          <mxGeometry x="375" y="140" width="100" height="30" as="geometry" />
        </mxCell>
        <mxCell id="CkMgCC47kW4L7O7TYzsK-6" value="crm_prd_info" style="rounded=1;whiteSpace=wrap;html=1;fillColor=#f5f5f5;strokeColor=#666666;fontSize=10;fontColor=#333333;" vertex="1" parent="1">
          <mxGeometry x="375" y="180" width="100" height="30" as="geometry" />
        </mxCell>
        <mxCell id="CkMgCC47kW4L7O7TYzsK-7" value="erp_cust_az12" style="rounded=1;whiteSpace=wrap;html=1;fillColor=#f5f5f5;strokeColor=#666666;fontSize=10;fontColor=#333333;" vertex="1" parent="1">
          <mxGeometry x="375" y="240" width="100" height="30" as="geometry" />
        </mxCell>
        <mxCell id="CkMgCC47kW4L7O7TYzsK-8" value="erp_loc_a101" style="rounded=1;whiteSpace=wrap;html=1;fillColor=#f5f5f5;strokeColor=#666666;fontSize=10;fontColor=#333333;" vertex="1" parent="1">
          <mxGeometry x="375" y="280" width="100" height="30" as="geometry" />
        </mxCell>
        <mxCell id="CkMgCC47kW4L7O7TYzsK-9" value="erp_px_cat_g1v2" style="rounded=1;whiteSpace=wrap;html=1;fillColor=#f5f5f5;strokeColor=#666666;fontSize=10;fontColor=#333333;" vertex="1" parent="1">
          <mxGeometry x="375" y="320" width="100" height="30" as="geometry" />
        </mxCell>
      </root>
    </mxGraphModel>
  </diagram>
</mxfile>
